<?xml version="1.0" encoding="utf-8"?>
<!-- Generator: Adobe Illustrator 23.0.3, SVG Export Plug-In . SVG Version: 6.00 Build 0)  -->
<svg version="1.1" id="Livello_1" xmlns="http://www.w3.org/2000/svg" xmlns:xlink="http://www.w3.org/1999/xlink" x="0px" y="0px"
	 viewBox="0 0 264.2 263.6" style="enable-background:new 0 0 264.2 263.6;" xml:space="preserve">
<style type="text/css">
	.st0{fill:#FFFFFF;}
</style>
<title>caricamento</title>
<path class="st0" d="M136.4,197.5c-0.1-1.2-0.2-2-0.2-2.8c0-23.3,0-46.5,0-69.8c0-1.3,0.3-2.5,0.9-3.6c7-10.4,14.2-20.6,21.3-31
	c0.2-0.3,0.4-0.5,0.8-1c0.7,0.4,1.5,0.7,2.2,1.2c8.4,5.3,16.9,10.5,25.2,16c2,1.3,3,1,4.5-0.6c7.1-7.6,14.3-15,21.5-22.5l1.5,0
	c0.7,1.2,1.5,2.3,2.3,3.3c2.9,3.1,6.1,6.1,8.9,9.3c0.9,1.1,1.5,2.4,1.5,3.8c0.1,16.1,0,32.3,0.1,48.4c0.1,1.5-0.7,2.8-2.1,3.4
	c-22.4,11.6-44.8,23.2-67.1,34.9l-18.9,9.9C138.2,196.7,137.5,197.1,136.4,197.5z M147.6,152.9c0.8-0.2,1.4-0.4,2-0.6
	c9.2-3.7,18.4-7.4,27.7-11c2.4-0.9,2.9-2.2,2.1-4.5c-0.8,0.3-1.6,0.5-2.3,0.7c-9,3.4-17.9,7-26.9,10.2
	C147.8,148.7,146.7,150,147.6,152.9L147.6,152.9z M147.6,173.7c0.6-0.2,1.1-0.3,1.6-0.5c9.5-4.4,18.9-9,28.4-13.3
	c2.2-1,2.6-2.3,1.9-4.5c-0.7,0.2-1.3,0.4-1.8,0.6c-9.2,4.2-18.4,8.5-27.7,12.5C147.6,169.6,146.8,171,147.6,173.7L147.6,173.7z
	 M147.6,167.2c1.5-0.6,2.9-1.1,4.2-1.7c8.6-3.9,17.2-7.8,25.8-11.5c2.3-1,2.5-2.3,1.8-4.5c-1.1,0.4-1.9,0.7-2.8,1.1
	c-8.8,3.8-17.6,7.7-26.5,11.4C147.6,163,146.8,164.4,147.6,167.2L147.6,167.2z M147.6,160.3c0.9-0.3,1.6-0.5,2.4-0.9
	c9.1-3.9,18.2-7.8,27.4-11.5c2.3-0.9,2.7-2.2,2-4.5c-1.2,0.4-2.3,0.8-3.3,1.2c-8.7,3.5-17.4,7.2-26.2,10.6
	C147.3,156.2,146.9,157.7,147.6,160.3L147.6,160.3z M198.2,150.5c0.3,0,0.5,0,0.8-0.1c6.8-3.2,13.5-6.3,20.2-9.6
	c0.9-0.4,1.2-1.9,1.8-3l-0.7-0.5c-0.8,0.3-1.5,0.6-2.3,1c-5.9,2.7-11.8,5.5-17.8,8C198,147.2,197.5,148.4,198.2,150.5z M198.3,145.3
	c6.8-3,13.4-6.1,20.1-8.9c1.9-0.8,2.7-1.9,1.9-4.1c-6.7,2.9-13.3,5.9-20,8.6C198.2,141.8,197.4,142.8,198.3,145.3L198.3,145.3z
	 M198.2,139.7c6.9-2.9,13.5-5.8,20.2-8.5c2-0.8,2.6-1.9,1.8-4c-6.7,2.8-13.3,5.5-20,8.1C198.1,136.1,197.5,137.2,198.2,139.7
	L198.2,139.7z M198.2,133.3c0.5-0.1,1-0.1,1.4-0.3c6.3-2.5,12.5-5.1,18.9-7.5c2-0.7,2.5-1.8,1.8-3.9c-6.7,2.6-13.4,5.2-20.2,7.7
	C198,130.1,197.5,131.2,198.2,133.3L198.2,133.3z"/>
<path class="st0" d="M40.2,97.8c5.2,1.4,10.2,2.7,15.1,4.1c24.9,6.7,49.9,13.4,74.8,20.1c2.2,0.6,2.8,1.5,2.8,3.7c-0.1,23,0,46,0,69
	v3c-4-2-7.5-3.8-11.1-5.6c-26.4-13.5-52.8-27.1-79.3-40.6c-1.6-0.6-2.6-2.2-2.3-3.9c0.1-15.5,0-31.1,0-46.6V97.8z M110.9,124.3
	c0,3.7,0,6.9,0,10c0,2.5-0.8,5.6,0.4,7.3s4.5,2.1,6.9,3c3,1.1,6,2.2,9.5,3.4c0-6.2,0-11.8,0-17.5c-0.1-0.7-0.6-1.3-1.2-1.6
	C121.4,127.4,116.4,125.9,110.9,124.3L110.9,124.3z M90.8,118.7c0,5.4,0,10.4,0,15.5c0,0.5,0.3,0.9,0.7,1.2
	c4.4,1.6,8.7,3.2,13.4,4.9c0-5.6,0-10.8,0-15.9c-0.1-0.7-0.5-1.4-1.1-1.7C99.6,121.2,95.3,120,90.8,118.7z M85.4,133.1V117
	l-12.3-3.6c0,4.9,0,9.4,0,13.9c0.1,0.7,0.5,1.3,1.1,1.7C77.8,130.4,81.5,131.6,85.4,133.1z M68.8,127.4c0-5.1,0-9.5-0.1-14
	c-0.1-0.6-0.6-1.2-1.2-1.4c-3.1-1-6.2-1.9-9.7-2.9c0,4.6,0,9,0,13.3c0.1,0.6,0.5,1,1,1.3C62,124.9,65.1,126,68.8,127.4z M53.5,121.5
	c0-4.6,0-8.8,0-13c0-0.5-0.3-0.9-0.7-1.2c-2.8-0.9-5.6-1.7-8.7-2.6c0,4.4,0,8.2,0,12.1c0.1,0.7,0.5,1.3,1.2,1.7
	C47.8,119.6,50.5,120.5,53.5,121.5z"/>
<path class="st0" d="M28.3,147.5l18.3,9.8c28.4,15.2,56.9,30.4,85.3,45.7c1.4,0.9,3.1,0.9,4.5,0c31.8-17,63.5-34,95.3-51
	c0.8-0.4,1.5-0.8,2.7-1.4c0,3.7,0.1,7.1-0.1,10.4c0,0.6-1.2,1.3-2,1.8c-22.3,13.2-44.7,26.3-67,39.5c-9.7,5.7-19.4,11.4-29,17.1
	c-1.2,0.9-2.9,0.9-4.2,0c-33.9-20.1-67.8-40.1-101.8-60c-1.4-0.6-2.3-2.1-2.1-3.6C28.5,153.2,28.3,150.6,28.3,147.5z"/>
<path class="st0" d="M40.9,93.3c6.6-5.5,12.9-10.6,18.8-16c2.9-2.7,5.7-3.4,9.7-2.8c23.2,3.4,46.5,6.5,69.8,9.7l17.4,2.4
	c-1.5,2.2-2.9,4.1-4.2,6c-5.7,8-11.4,15.9-17,23.9c-0.9,1.3-1.7,1.8-3.4,1.3c-29.6-8-59.3-15.9-89-23.8C42.5,93.9,42,93.7,40.9,93.3
	z"/>
<path class="st0" d="M209.2,81.7c-5.1,5.6-10.4,11.6-16,17.4c-4.3,4.4-4.5,4.3-9.8,0.9c-7.1-4.5-14.1-9.1-21.3-13.5
	c-1.7-1-3.5-1.7-5.4-1.9c-11.5-1.5-22.9-2.9-34.4-4.7L209.2,81.7z"/>
</svg>
